<svg fill="#282828" fill-opacity="1" width="30px" height="auto" version="1.1"
    xmlns="http://www.w3.org/2000/svg" viewBox="0 0 695.4651 522.7618">
    <g id="Layer_2" data-name="Layer 2">
        <path class="cls-1" d="M149.6274,144.5134,10.4437,283.1637s-32.5769-64.5351,17.3406-115.4394C84.3793,110.01,149.6274,144.5134,149.6274,144.5134Z" />
        <path class="cls-1" d="M175.3526,167.9873,31.8061,311.7461,185.86,467.7442s19.3905-62.73,89.7433-78.5052c84.439-18.9315,129.8594,56.6241,129.8594,56.6241L643.3417,208.6766,487.1294,52.3193,273.35,265.8449" />
        <path class="cls-1" d="M512.2414,27.3343,539.017,0,695.4651,157.1011l-27.2363,26.4454Z" />
        <path class="cls-1" d="M379.1621,471.4957s-32.94,45.6508-79.1,50.6159c-54.4037,5.7415-87.2272-28.4281-87.2272-28.4281s10.6684-60.9833,76.9977-70.5052C347.87,414.8445,379.1621,471.4957,379.1621,471.4957Z" />
    </g>
</svg>